<svg viewBox="0 0 375 375" version="1.0"><defs><clipPath id="a"><path d="M191 152h104v77H191Zm0 0"/></clipPath><clipPath id="b"><path d="m186.43 163.59 100.59-24.383 17.488 72.164-100.586 24.379Zm0 0"/></clipPath><clipPath id="c"><path d="m186.43 163.59 100.59-24.383 17.488 72.164-100.586 24.379Zm0 0"/></clipPath><clipPath id="d"><path d="M77.719 179.047h18.75v18.75h-18.75Zm0 0"/></clipPath></defs><path fill="#fff" d="M-37.5-37.5h450v450h-450z"/><path d="M-37.5-37.5h450v450h-450z"/><g clip-path="url(#a)"><g clip-path="url(#b)"><g clip-path="url(#c)"><path fill="#9cff1e" d="M293.055 173.332c.375 1.422 1.164 2.273 1.812 2.754-.976 1.32-1.96 2.637-2.949 3.95-1.074-.81-2.824-2.528-3.59-5.423a470.326 470.326 0 0 1-5.508 7.235 442.935 442.935 0 0 1-6.457 8.132 391.608 391.608 0 0 1-6.66 7.985 295.818 295.818 0 0 1-6.918 7.789 205.789 205.789 0 0 1-7.27 7.512c-2.5 2.445-5.085 4.824-7.82 7.07-2.746 2.238-5.617 4.375-8.89 6.133-1.645.867-3.395 1.644-5.371 2.125-.993.23-2.043.383-3.16.367a9.863 9.863 0 0 1-1.704-.168 9.322 9.322 0 0 1-1.71-.508 8.928 8.928 0 0 1-1.59-.863c-.45-.348-.907-.668-1.305-1.086-.422-.383-.778-.84-1.133-1.293a45.212 45.212 0 0 1-.465-.719 3.215 3.215 0 0 1-.21-.37l-.192-.38a11.3 11.3 0 0 1-.98-3.11l-.07-.386-.044-.387c-.023-.254-.055-.511-.074-.765-.016-.5-.05-1.008-.027-1.496.042-1.97.347-3.828.765-5.618.422-1.789.95-3.511 1.531-5.195 1.172-3.37 2.555-6.597 3.989-9.77 1.437-3.175 2.937-6.292 4.425-9.394 1.485-3.105 2.961-6.191 4.333-9.297 1.363-3.097 2.644-6.222 3.57-9.347.457-1.559.816-3.121.992-4.621l.07-.833.004-.27c.004-.175.012-.358.012-.534l-.024-.516c-.05-.672-.164-1.3-.355-1.832a3.793 3.793 0 0 0-.824-1.316c-.09-.09-.168-.188-.281-.262l-.157-.121c-.05-.043-.093-.086-.164-.125-.133-.078-.258-.16-.386-.242l-.407-.207a6.778 6.778 0 0 0-1.781-.528c-.637-.101-1.328-.097-2.027-.047-1.41.106-2.895.504-4.36 1.036-1.468.547-2.93 1.238-4.36 2.015-2.866 1.567-5.62 3.465-8.288 5.5-2.668 2.04-5.25 4.227-7.762 6.5a178.646 178.646 0 0 0-7.336 7.067 195.927 195.927 0 0 0-3.531 3.683 257.92 257.92 0 0 0-1.723 1.88c-.566.62-1.14 1.265-1.675 1.878l-3.708-3.187c.594-.688 1.168-1.329 1.758-1.977.586-.648 1.176-1.293 1.77-1.93a206.361 206.361 0 0 1 3.617-3.777 179.137 179.137 0 0 1 7.547-7.262c2.59-2.347 5.266-4.62 8.07-6.765 2.809-2.137 5.738-4.164 8.918-5.907 1.594-.863 3.254-1.656 5.012-2.312 1.766-.637 3.633-1.16 5.664-1.32 1.016-.075 2.059-.079 3.125.085 1.066.16 2.14.47 3.148.942.25.125.504.246.746.379l.711.445c.114.067.235.168.352.258l.352.277c.238.176.449.395.664.614a8.723 8.723 0 0 1 1.906 3.023c.394 1.09.57 2.172.648 3.215l.032.773c.003.254-.008.504-.012.754l-.012.38-.027.366-.063.73c-.222 1.923-.652 3.727-1.164 5.473-1.031 3.48-2.383 6.739-3.785 9.942-1.414 3.195-2.906 6.324-4.394 9.433-1.493 3.11-2.977 6.196-4.383 9.297-1.403 3.102-2.73 6.215-3.82 9.352-.544 1.57-1.024 3.144-1.391 4.707-.367 1.562-.61 3.125-.64 4.598-.02.375.015.726.019 1.085.011.176.035.348.05.52l.028.258.047.246c.101.672.304 1.266.558 1.8l.098.2c.031.066.066.133.11.191.077.118.156.239.23.364.187.218.351.453.574.644.188.215.45.379.676.567.215.144.441.265.676.367.238.093.492.172.761.226.274.043.559.078.86.082a8.231 8.231 0 0 0 1.957-.238c1.375-.332 2.808-.941 4.203-1.684 2.804-1.5 5.5-3.48 8.082-5.593 2.59-2.125 5.078-4.414 7.504-6.785a199.691 199.691 0 0 0 7.094-7.333 288.461 288.461 0 0 0 6.804-7.66 363.839 363.839 0 0 0 6.574-7.882c2.16-2.657 4.29-5.34 6.391-8.047a487 487 0 0 0 5.453-7.164 9.857 9.857 0 0 1-6.18-1.97c.954-1.269 1.903-2.538 2.844-3.812.649.477 1.688.989 3.149.942 1.453-.047 3.347-.664 5.629-2.442l3.84 2.703c-.981 2.813-1.012 4.797-.637 6.227Zm0 0"/></g></g></g><g clip-path="url(#d)"><path fill="#9cff1e" d="M96.402 185.848v5.129c-6.21 1.816-7.14 5.039-7.14 6.796h-5.344c0-1.468.34-4.125 2.379-6.691h-8.574v-5.344h8.574a10.769 10.769 0 0 1-2.379-6.691h5.344c0 1.758.93 4.984 7.14 6.8Zm0 0"/></g><path d="M109.796 197.012v-17.937h8.203l5.531 10.25 5.531-10.25h8.203v17.937h-6.671v-8.531l-4.891 8.531h-4.36l-4.89-8.531v8.531ZM138.294 197.012v-17.937h18.953v5.125H144.95v1.671h12.297v4.344H144.95v1.672h12.297v5.125ZM169.215 197.262c-2.438 0-4.512-.18-6.219-.531-1.71-.352-3.012-1.004-3.906-1.953-.887-.957-1.328-2.32-1.328-4.094h6.672c0 .293.125.547.375.766.257.218.75.39 1.468.515.727.117 1.797.172 3.203.172 1.313 0 2.29-.023 2.938-.078.656-.063 1.082-.16 1.281-.297a.622.622 0 0 0 .313-.547c0-.25-.11-.437-.328-.562-.211-.133-.657-.227-1.344-.282-.68-.062-1.719-.113-3.125-.156-2.7-.082-4.871-.312-6.516-.687-1.637-.375-2.824-.97-3.562-1.782-.742-.812-1.11-1.91-1.11-3.296 0-1.977.938-3.41 2.813-4.297 1.883-.883 4.594-1.328 8.125-1.328 2.344 0 4.32.203 5.937.609 1.625.406 2.864 1.07 3.72 1.984.85.918 1.28 2.14 1.28 3.672h-6.656c0-.476-.398-.785-1.187-.922-.782-.144-1.985-.218-3.61-.218-1.043 0-1.836.023-2.375.062-.531.043-.898.125-1.094.25a.574.574 0 0 0-.296.531c0 .22.101.383.312.485.219.105.649.172 1.297.203.656.031 1.629.074 2.922.125a79.65 79.65 0 0 1 4.781.328c1.414.148 2.617.402 3.61.766.988.355 1.75.875 2.28 1.562.532.688.798 1.625.798 2.813 0 1.636-.45 2.902-1.344 3.796-.887.899-2.18 1.524-3.875 1.875-1.7.344-3.781.516-6.25.516ZM181.451 197.012v-17.937h13.328c1.07 0 2.11.187 3.11.562a7.895 7.895 0 0 1 2.703 1.656c.8.73 1.43 1.657 1.89 2.782.47 1.125.704 2.449.704 3.968 0 1.524-.235 2.844-.704 3.97-.46 1.124-1.09 2.058-1.89 2.796a8.144 8.144 0 0 1-2.703 1.656c-1 .367-2.04.547-3.11.547Zm6.656-5.64h4.61c.363 0 .758-.02 1.187-.063.438-.04.852-.16 1.25-.36.395-.195.72-.519.97-.968.257-.457.39-1.102.39-1.938 0-.832-.133-1.472-.39-1.922-.25-.457-.575-.785-.97-.984a3.616 3.616 0 0 0-1.25-.36c-.43-.038-.824-.062-1.187-.062h-4.61ZM203.952 197.012v-17.937h18.954v5.125h-12.297v1.671h12.297v4.344h-12.297v1.672h12.297v5.125ZM230.858 197.012l-7.438-17.937h7.328l5.063 13.328 5.047-13.328h7.328l-7.438 17.937Zm0 0" fill="#fff"/><path d="M112.67 212.02v-5.25h-3.28v-2.421h9.421v2.422h-3.28v5.25ZM119.131 212.02v-7.671h8.11v2.187h-5.266v.719h5.266v1.86h-5.266v.718h5.266v2.188ZM132.263 212.13c-1.68 0-2.902-.32-3.672-.969-.762-.656-1.14-1.648-1.14-2.984 0-1.332.378-2.32 1.14-2.969.77-.644 1.992-.969 3.672-.969 1.54 0 2.707.282 3.5.844.8.563 1.234 1.45 1.297 2.656h-2.922c-.055-.363-.226-.632-.516-.812-.293-.176-.746-.266-1.359-.266-.562 0-.984.074-1.266.219-.28.137-.468.32-.562.547-.094.23-.14.48-.14.75 0 .273.046.527.14.765.094.231.281.418.562.563.29.148.711.219 1.266.219.613 0 1.066-.094 1.36-.282.289-.187.46-.46.515-.828h2.922c-.063 1.211-.496 2.102-1.297 2.672-.793.563-1.96.844-3.5.844ZM137.379 212.02v-7.671h2.843v2.64h4.5v-2.64h2.844v7.672h-2.844v-2.625h-4.5v2.625ZM147.996 212.02v-7.671h3.72l3.312 4.531v-4.531h2.843v7.672h-3.718l-3.313-4.532v4.532ZM163.01 212.13c-1.679 0-2.902-.32-3.671-.969-.762-.656-1.14-1.648-1.14-2.984 0-1.332.378-2.32 1.14-2.969.77-.644 1.992-.969 3.672-.969 1.687 0 2.91.325 3.672.97.77.648 1.156 1.636 1.156 2.968 0 1.336-.387 2.328-1.156 2.984-.762.649-1.985.969-3.672.969Zm0-2.406c.563 0 .985-.07 1.266-.219.282-.145.47-.332.563-.563a1.93 1.93 0 0 0 0-1.515c-.094-.227-.281-.41-.563-.547-.28-.145-.703-.219-1.265-.219-.563 0-.985.074-1.266.219-.281.137-.469.32-.562.547-.094.23-.14.48-.14.75 0 .273.046.527.14.765.093.231.28.418.562.563.29.148.711.219 1.266.219ZM168.16 212.02v-7.671h2.843v5.265h5.047v2.407ZM181.072 212.13c-1.68 0-2.902-.32-3.672-.969-.762-.656-1.14-1.648-1.14-2.984 0-1.332.378-2.32 1.14-2.969.77-.644 1.992-.969 3.672-.969 1.687 0 2.91.325 3.672.97.77.648 1.156 1.636 1.156 2.968 0 1.336-.387 2.328-1.156 2.984-.762.649-1.985.969-3.672.969Zm0-2.406c.562 0 .984-.07 1.266-.219.28-.145.468-.332.562-.563a1.93 1.93 0 0 0 0-1.515c-.094-.227-.281-.41-.562-.547-.282-.145-.704-.219-1.266-.219-.563 0-.984.074-1.266.219-.28.137-.468.32-.562.547-.094.23-.14.48-.14.75 0 .273.046.527.14.765.094.231.281.418.562.563.29.148.711.219 1.266.219ZM190.595 212.13c-1.406 0-2.507-.32-3.297-.969-.792-.656-1.187-1.648-1.187-2.984 0-1.332.406-2.32 1.219-2.969.82-.644 2.02-.969 3.593-.969 3.07 0 4.672 1.059 4.797 3.172h-2.922c-.054-.195-.226-.367-.515-.515-.293-.157-.746-.235-1.36-.235-.562 0-.984.074-1.265.219-.281.148-.469.344-.563.594a2.23 2.23 0 0 0-.14.812c0 .305.047.59.14.86.094.273.282.492.563.656.289.168.71.25 1.265.25.551 0 .989-.047 1.313-.14.32-.095.508-.27.562-.532h-2.046v-1.531h4.968v4.172h-1.64l-.219-1.11a3.271 3.271 0 0 1-1.266.906c-.523.208-1.187.313-2 .313ZM199.836 212.02v-2.515l-3.906-5.156h3.28l2.048 2.86 2.031-2.86h3.281l-3.89 5.156v2.516Zm0 0" fill="#9cff1e"/></svg>
